<svg xmlns="http://www.w3.org/2000/svg" aria-hidden="true" overflow="hidden" style="position:absolute;width:0;height:0">
  <defs>
    <symbol id="icon-number" viewBox="0 0 96 32">
      <path d="M10.141 23.756V5.917h3.421v17.839h-3.421zm-7.412-7.291v-3.217h18.246v3.217H2.729zm30.036 12.952a18.66 18.66 0 0 1-5.865-.937c-1.873-.625-3.407-1.466-4.602-2.525l1.873-3.217c.95.896 2.186 1.629 3.706 2.199s3.15.855 4.887.855c2.118 0 3.761-.448 4.928-1.344 1.195-.923 1.792-2.159 1.792-3.706 0-1.493-.57-2.688-1.711-3.584-1.113-.923-2.892-1.385-5.335-1.385h-2.281v-2.851l8.471-10.426.57 1.629H23.599V.582h18.816v2.769l-8.431 10.385-2.118-1.263h1.344c3.448 0 6.028.774 7.738 2.321 1.738 1.548 2.607 3.516 2.607 5.905 0 1.602-.394 3.068-1.181 4.399s-1.982 2.389-3.584 3.177c-1.575.76-3.584 1.14-6.028 1.14zm24.895 0c-2.308 0-4.303-.339-5.987-1.018s-2.986-1.643-3.91-2.892c-.923-1.276-1.385-2.769-1.385-4.48 0-1.683.435-3.109 1.303-4.276.896-1.195 2.186-2.091 3.869-2.688 1.684-.624 3.72-.937 6.109-.937s4.426.312 6.109.937c1.711.597 3.014 1.493 3.91 2.688s1.344 2.62 1.344 4.276c0 1.711-.461 3.204-1.385 4.48-.923 1.249-2.24 2.213-3.951 2.892s-3.72 1.018-6.028 1.018zm0-3.299c2.281 0 4.059-.462 5.335-1.385 1.303-.95 1.955-2.226 1.955-3.828 0-1.575-.652-2.81-1.955-3.706-1.276-.923-3.055-1.385-5.335-1.385-2.253 0-4.018.462-5.295 1.385-1.276.896-1.914 2.131-1.914 3.706 0 1.602.638 2.878 1.914 3.828 1.276.923 3.041 1.385 5.295 1.385zm0-10.793c-2.172 0-4.018-.285-5.539-.855-1.52-.597-2.688-1.439-3.503-2.525-.815-1.113-1.222-2.43-1.222-3.951 0-1.602.421-2.973 1.263-4.113.869-1.168 2.077-2.064 3.625-2.688s3.34-.937 5.376-.937c2.064 0 3.869.312 5.417.937s2.756 1.52 3.625 2.688c.869 1.14 1.303 2.511 1.303 4.113 0 1.52-.407 2.837-1.222 3.951-.815 1.086-1.996 1.928-3.543 2.525-1.548.57-3.407.855-5.58.855zm0-2.606c1.982 0 3.53-.407 4.643-1.222 1.14-.815 1.711-1.928 1.711-3.34 0-1.439-.584-2.566-1.751-3.38s-2.701-1.222-4.602-1.222c-1.901 0-3.421.407-4.561 1.222-1.113.815-1.67 1.941-1.67 3.38 0 1.412.543 2.525 1.629 3.34 1.113.815 2.647 1.222 4.602 1.222zm25.925 16.698c-2.226 0-4.222-.57-5.987-1.711-1.738-1.14-3.122-2.797-4.154-4.969-1.004-2.172-1.507-4.806-1.507-7.901s.502-5.729 1.507-7.901c1.032-2.172 2.417-3.828 4.154-4.969C79.363.826 81.359.255 83.585.255c2.199 0 4.181.57 5.946 1.711s3.15 2.797 4.154 4.969 1.507 4.806 1.507 7.901-.502 5.729-1.507 7.901c-1.004 2.172-2.389 3.828-4.154 4.969s-3.747 1.711-5.946 1.711zm0-3.625c1.493 0 2.796-.407 3.91-1.222 1.14-.815 2.023-2.036 2.647-3.665.652-1.629.977-3.652.977-6.068s-.326-4.439-.977-6.068c-.625-1.629-1.507-2.851-2.647-3.665-1.113-.815-2.417-1.222-3.91-1.222s-2.81.407-3.951 1.222c-1.14.815-2.036 2.036-2.688 3.665-.625 1.629-.937 3.652-.937 6.068s.312 4.439.937 6.068c.652 1.629 1.548 2.851 2.688 3.665s2.457 1.222 3.951 1.222z"/>
    </symbol>
    <symbol id="icon-UK" viewBox="0 0 43 32">
      <path fill="var(--color1, #ffd700)" d="M42.443.523H.324v31.344h42.119V.523z"/>
      <path fill="var(--color2, #0057b7)" d="M.324.523h42.119v15.672H.324V.523z"/>
    </symbol>
    <symbol id="icon-close" viewBox="0 0 32 32">
      <path d="M32 3.223 28.777 0 16 12.777 3.223 0 0 3.223 12.777 16 0 28.777 3.223 32 16 19.223 28.777 32 32 28.777 19.223 16 32 3.223z"/>
    </symbol>
  </defs>
</svg>