<!-- Advanatge Icons -->
    
<svg aria-hidden="true" style="position: absolute; width: 0; height: 0; overflow: hidden;" version="1.1" xmlns="http://www.w3.org/2000/svg" xmlns:xlink="http://www.w3.org/1999/xlink">
<defs>
<symbol id="icon-chocolate-bar" viewBox="0 0 32 32">
<path d="M13.822 2.413l7.527 7.536 0.080-0.080c0.154-0.151 0.366-0.244 0.599-0.244 0.227 0 0.433 0.088 0.586 0.232l-0-0 0.873 0.873c0.305 0.305 0.315 0.77 0.083 1.094l-0.004 0.007-0.143 0.192 6.16 6.16c0.55 0.55 0.55 1.43 0 1.98l-9.43 9.43c-0.55 0.55-1.43 0.55-1.98 0l-4.447-4.447c-0.155 0.195-0.393 0.319-0.659 0.319-0.233 0-0.444-0.095-0.596-0.248l-2.6-2.6c-0.151-0.154-0.244-0.366-0.244-0.599 0-0.227 0.088-0.433 0.232-0.586l-0 0 0.006-0.007 0.077-0.076-7.527-7.527c-0.55-0.55-0.55-1.43 0-1.98l9.43-9.43c0.55-0.55 1.43-0.55 1.98 0v0.001zM20.404 10.893l-1.756-1.755c-0.108-0.111-0.258-0.18-0.425-0.18s-0.317 0.069-0.425 0.18l-3.58 3.58c-0.111 0.11-0.179 0.262-0.179 0.43s0.068 0.32 0.179 0.43l1.749 1.749 0.61-0.61-1.565-1.565 3.21-3.22 1.569 1.574 0.613-0.613zM15.328 15.965l-1.754-1.754c-0.108-0.111-0.258-0.18-0.425-0.18s-0.317 0.069-0.425 0.18l-3.59 3.59c-0.24 0.23-0.24 0.61 0 0.85l1.752 1.752 0.616-0.616-1.57-1.564 3.22-3.21 1.564 1.563 0.612-0.611zM8.822 8.193l3.58 3.58c0.24 0.24 0.62 0.24 0.85-0.010l3.58-3.58c0.111-0.106 0.18-0.255 0.18-0.42 0-0 0-0 0-0v0h0.010c0-0.15-0.060-0.31-0.18-0.43l-3.58-3.58c-0.11-0.111-0.262-0.18-0.43-0.18s-0.32 0.069-0.43 0.18l-0 0-3.58 3.59c-0.24 0.23-0.24 0.61 0 0.85zM3.752 13.263l3.58 3.58c0.24 0.24 0.62 0.24 0.85 0l3.58-3.58c0.111-0.106 0.18-0.255 0.18-0.42 0-0.004-0-0.007-0-0.010v0.001h0.010c0-0.16-0.060-0.31-0.18-0.43l-3.58-3.58c-0.108-0.111-0.258-0.18-0.425-0.18s-0.317 0.069-0.425 0.18l-3.59 3.59c-0.24 0.23-0.24 0.61 0 0.85zM10.685 22.017l2.362 2.363 9.636-13.040-0.655-0.655-11.343 11.332z"></path>
<path d="M13.822 2.413l7.527 7.536 0.080-0.080c0.154-0.151 0.366-0.244 0.599-0.244 0.227 0 0.433 0.088 0.586 0.232l-0-0 0.873 0.873c0.305 0.305 0.315 0.77 0.083 1.094l-0.004 0.007-0.143 0.192 6.16 6.16c0.55 0.55 0.55 1.43 0 1.98l-9.43 9.43c-0.55 0.55-1.43 0.55-1.98 0l-4.447-4.447c-0.155 0.195-0.393 0.319-0.659 0.319-0.233 0-0.444-0.095-0.596-0.248l-2.6-2.6c-0.151-0.154-0.244-0.366-0.244-0.599 0-0.227 0.088-0.433 0.232-0.586l-0 0 0.006-0.007 0.077-0.076-7.527-7.527c-0.55-0.55-0.55-1.43 0-1.98l9.43-9.43c0.55-0.55 1.43-0.55 1.98 0v0.001zM20.404 10.893l-1.756-1.755c-0.108-0.111-0.258-0.18-0.425-0.18s-0.317 0.069-0.425 0.18l-3.58 3.58c-0.111 0.11-0.179 0.262-0.179 0.43s0.068 0.32 0.179 0.43l1.749 1.749 0.61-0.61-1.565-1.565 3.21-3.22 1.569 1.574 0.613-0.613zM15.328 15.965l-1.754-1.754c-0.108-0.111-0.258-0.18-0.425-0.18s-0.317 0.069-0.425 0.18l-3.59 3.59c-0.24 0.23-0.24 0.61 0 0.85l1.752 1.752 0.616-0.616-1.57-1.564 3.22-3.21 1.564 1.563 0.612-0.611zM8.822 8.193l3.58 3.58c0.24 0.24 0.62 0.24 0.85-0.010l3.58-3.58c0.111-0.106 0.18-0.255 0.18-0.42 0-0 0-0 0-0v0h0.010c0-0.15-0.060-0.31-0.18-0.43l-3.58-3.58c-0.11-0.111-0.262-0.18-0.43-0.18s-0.32 0.069-0.43 0.18l-0 0-3.58 3.59c-0.24 0.23-0.24 0.61 0 0.85zM3.752 13.263l3.58 3.58c0.24 0.24 0.62 0.24 0.85 0l3.58-3.58c0.111-0.106 0.18-0.255 0.18-0.42 0-0.004-0-0.007-0-0.010v0.001h0.010c0-0.16-0.060-0.31-0.18-0.43l-3.58-3.58c-0.108-0.111-0.258-0.18-0.425-0.18s-0.317 0.069-0.425 0.18l-3.59 3.59c-0.24 0.23-0.24 0.61 0 0.85zM10.685 22.017l2.362 2.363 9.636-13.040-0.655-0.655-11.343 11.332z"></path>
</symbol>
<symbol id="icon-coin" viewBox="0 0 32 32">
<path d="M16 2.667c-7.333 0-13.333 6-13.333 13.333s6 13.333 13.333 13.333 13.333-6 13.333-13.333-6-13.333-13.333-13.333zM16 26.667c-5.867 0-10.667-4.8-10.667-10.667s4.8-10.667 10.667-10.667 10.667 4.8 10.667 10.667-4.8 10.667-10.667 10.667z"></path>
<path d="M17.733 14.667h-3.466c-0.667 0-1.2-0.534-1.2-1.2 0-0.667 0.533-1.2 1.2-1.2h4.933c0.8 0 1.333-0.534 1.333-1.334s-0.533-1.333-1.333-1.333h-1.867v-1.2c0-0.8-0.533-1.333-1.333-1.333s-1.333 0.533-1.333 1.333v1.2h-0.4c-2.135 0.002-3.865 1.732-3.867 3.867v0c0.002 2.135 1.732 3.864 3.867 3.866h3.333c0.667 0 1.2 0.534 1.2 1.2 0 0.667-0.533 1.2-1.2 1.2h-4.933c-0.8 0-1.334 0.534-1.334 1.334s0.534 1.333 1.334 1.333h2v1.2c0 0.8 0.533 1.333 1.333 1.333s1.333-0.533 1.333-1.333v-1.2h0.4c2.135-0.002 3.865-1.732 3.867-3.867v-0c-0.002-2.135-1.732-3.864-3.867-3.866h-0z"></path>
</symbol>
<symbol id="icon-spoon" viewBox="0 0 32 32">
<path d="M15.451 14.106c-0.732-0.884-1.176-2.029-1.176-3.278 0-0.001 0-0.003 0-0.004v0c0-4.324 5.181-8.642 10.362-8.642 2.861 0.001 5.18 2.321 5.181 5.182v0c0 5.182-4.317 10.364-8.646 10.364-0.001 0-0.002 0-0.003 0-1.249 0-2.395-0.444-3.287-1.184l0.009 0.007-12.758 12.761c-0.308 0.287-0.723 0.463-1.178 0.463-0.955 0-1.73-0.775-1.73-1.73 0-0.456 0.176-0.87 0.464-1.179l-0.001 0.001 12.764-12.761z"></path>
</symbol>
<symbol id="icon-close" viewBox="0 0 32 32">
<path d="M32 3.223 28.777 0 16 12.777 3.223 0 0 3.223 12.777 16 0 28.777 3.223 32 16 19.223 28.777 32 32 28.777 19.223 16 32 3.223z"/>
</symbol>
<symbol id="icon-number" viewBox="0 0 96 32">
<path d="M10.141 23.756V5.917h3.421v17.839h-3.421zm-7.412-7.291v-3.217h18.246v3.217H2.729zm30.036 12.952a18.66 18.66 0 0 1-5.865-.937c-1.873-.625-3.407-1.466-4.602-2.525l1.873-3.217c.95.896 2.186 1.629 3.706 2.199s3.15.855 4.887.855c2.118 0 3.761-.448 4.928-1.344 1.195-.923 1.792-2.159 1.792-3.706 0-1.493-.57-2.688-1.711-3.584-1.113-.923-2.892-1.385-5.335-1.385h-2.281v-2.851l8.471-10.426.57 1.629H23.599V.582h18.816v2.769l-8.431 10.385-2.118-1.263h1.344c3.448 0 6.028.774 7.738 2.321 1.738 1.548 2.607 3.516 2.607 5.905 0 1.602-.394 3.068-1.181 4.399s-1.982 2.389-3.584 3.177c-1.575.76-3.584 1.14-6.028 1.14zm24.895 0c-2.308 0-4.303-.339-5.987-1.018s-2.986-1.643-3.91-2.892c-.923-1.276-1.385-2.769-1.385-4.48 0-1.683.435-3.109 1.303-4.276.896-1.195 2.186-2.091 3.869-2.688 1.684-.624 3.72-.937 6.109-.937s4.426.312 6.109.937c1.711.597 3.014 1.493 3.91 2.688s1.344 2.62 1.344 4.276c0 1.711-.461 3.204-1.385 4.48-.923 1.249-2.24 2.213-3.951 2.892s-3.72 1.018-6.028 1.018zm0-3.299c2.281 0 4.059-.462 5.335-1.385 1.303-.95 1.955-2.226 1.955-3.828 0-1.575-.652-2.81-1.955-3.706-1.276-.923-3.055-1.385-5.335-1.385-2.253 0-4.018.462-5.295 1.385-1.276.896-1.914 2.131-1.914 3.706 0 1.602.638 2.878 1.914 3.828 1.276.923 3.041 1.385 5.295 1.385zm0-10.793c-2.172 0-4.018-.285-5.539-.855-1.52-.597-2.688-1.439-3.503-2.525-.815-1.113-1.222-2.43-1.222-3.951 0-1.602.421-2.973 1.263-4.113.869-1.168 2.077-2.064 3.625-2.688s3.34-.937 5.376-.937c2.064 0 3.869.312 5.417.937s2.756 1.52 3.625 2.688c.869 1.14 1.303 2.511 1.303 4.113 0 1.52-.407 2.837-1.222 3.951-.815 1.086-1.996 1.928-3.543 2.525-1.548.57-3.407.855-5.58.855zm0-2.606c1.982 0 3.53-.407 4.643-1.222 1.14-.815 1.711-1.928 1.711-3.34 0-1.439-.584-2.566-1.751-3.38s-2.701-1.222-4.602-1.222c-1.901 0-3.421.407-4.561 1.222-1.113.815-1.67 1.941-1.67 3.38 0 1.412.543 2.525 1.629 3.34 1.113.815 2.647 1.222 4.602 1.222zm25.925 16.698c-2.226 0-4.222-.57-5.987-1.711-1.738-1.14-3.122-2.797-4.154-4.969-1.004-2.172-1.507-4.806-1.507-7.901s.502-5.729 1.507-7.901c1.032-2.172 2.417-3.828 4.154-4.969C79.363.826 81.359.255 83.585.255c2.199 0 4.181.57 5.946 1.711s3.15 2.797 4.154 4.969 1.507 4.806 1.507 7.901-.502 5.729-1.507 7.901c-1.004 2.172-2.389 3.828-4.154 4.969s-3.747 1.711-5.946 1.711zm0-3.625c1.493 0 2.796-.407 3.91-1.222 1.14-.815 2.023-2.036 2.647-3.665.652-1.629.977-3.652.977-6.068s-.326-4.439-.977-6.068c-.625-1.629-1.507-2.851-2.647-3.665-1.113-.815-2.417-1.222-3.91-1.222s-2.81.407-3.951 1.222c-1.14.815-2.036 2.036-2.688 3.665-.625 1.629-.937 3.652-.937 6.068s.312 4.439.937 6.068c.652 1.629 1.548 2.851 2.688 3.665s2.457 1.222 3.951 1.222z"/>
</symbol>
<symbol id="icon-UK" viewBox="0 0 43 32">
<path fill="var(--color1, #ffd700)" d="M42.443.523H.324v31.344h42.119V.523z"/>
<path fill="var(--color2, #0057b7)" d="M.324.523h42.119v15.672H.324V.523z"/>
</symbol>
</defs>
</svg>