
<svg xmlns="http://www.w3.org/2000/svg" aria-hidden="true" style="position:absolute;width:0;height:0;overflow:hidden">
  <defs>
  <!-- Header-icon -->
    <symbol id="icon-chocolate" viewBox="0 0 32 32">
      <path fill="#fcf1e0" d="M3.944 20.076 14.721 2.652l.64-.674 8.236 5.491.056 3.314 2.01 3.28-8.88 14.077-12.839-8.063z" style="fill:var(--color1, #fcf1e0)"/>
      <path fill="none" stroke="#fd9222" stroke-linecap="round" stroke-linejoin="round" stroke-width="2.667" d="M21.635 23.88 7.45 15.016m3.911-6.417 14.185 8.864M10.63 25.864l11.736-19.25m4.81 8.175c-3.04-1.899-4.234-3.384-2.278-6.592l-9.626-6.015-11.736 19.25 14.186 8.864 9.454-15.507z" style="stroke:var(--color2, #fd9222)"/>
    </symbol>
    <symbol id="icon-instagram"  viewBox="0 0 24 24" fill="none" xmlns="http://www.w3.org/2000/svg">
      <path d="M17 2H7C4.23858 2 2 4.23858 2 7V17C2 19.7614 4.23858 22 7 22H17C19.7614 22 22 19.7614 22 17V7C22 4.23858 19.7614 2 17 2Z"  stroke-width="2" stroke-linecap="round" stroke-linejoin="round"/>
      <path d="M16.0002 11.3701C16.1236 12.2023 15.9815 13.0523 15.594 13.7991C15.2065 14.5459 14.5933 15.1515 13.8418 15.5297C13.0903 15.908 12.2386 16.0397 11.408 15.906C10.5773 15.7723 9.80996 15.3801 9.21503 14.7852C8.62011 14.1903 8.22793 13.4229 8.09426 12.5923C7.9606 11.7616 8.09226 10.91 8.47052 10.1584C8.84878 9.40691 9.45438 8.7938 10.2012 8.4063C10.948 8.0188 11.7979 7.87665 12.6302 8.00006C13.4791 8.12594 14.265 8.52152 14.8719 9.12836C15.4787 9.73521 15.8743 10.5211 16.0002 11.3701Z" stroke-width="2" stroke-linecap="round" stroke-linejoin="round"/>
      <path d="M16.0002 11.3701C16.1236 12.2023 15.9815 13.0523 15.594 13.7991C15.2065 14.5459 14.5933 15.1515 13.8418 15.5297C13.0903 15.908 12.2386 16.0397 11.408 15.906C10.5773 15.7723 9.80996 15.3801 9.21503 14.7852C8.62011 14.1903 8.22793 13.4229 8.09426 12.5923C7.9606 11.7616 8.09226 10.91 8.47052 10.1584C8.84878 9.40691 9.45438 8.7938 10.2012 8.4063C10.948 8.0188 11.7979 7.87665 12.6302 8.00006C13.4791 8.12594 14.265 8.52152 14.8719 9.12836C15.4787 9.73521 15.8743 10.5211 16.0002 11.3701Z" stroke-width="2" stroke-linecap="round" stroke-linejoin="round"/>
      <path d="M17.5 6.5H17.51"  stroke-width="2" stroke-linecap="round" stroke-linejoin="round"/>
    </symbol>

    <symbol id="icon-twitter" viewBox="0 0 24 24" fill="none" xmlns="http://www.w3.org/2000/svg">
      <path d="M23 3.00005C22.0424 3.67552 20.9821 4.19216 19.86 4.53005C19.2577 3.83756 18.4573 3.34674 17.567 3.12397C16.6767 2.90121 15.7395 2.95724 14.8821 3.2845C14.0247 3.61176 13.2884 4.19445 12.773 4.95376C12.2575 5.71308 11.9877 6.61238 12 7.53005V8.53005C10.2426 8.57561 8.50127 8.18586 6.93101 7.39549C5.36074 6.60513 3.51032 4.72313 2.5 3.2845C2.5 3.2845 -1 13 8 17C5.94053 18.398 3.48716 19.099 1 19C10 24 21 19 21 7.50005C20.9991 7.2215 20.9723 6.94364 20.92 6.67005C21.9406 5.66354 22.6608 4.39276 23 3.00005Z" stroke-width="2" stroke-linecap="round" stroke-linejoin="round"/>
    </symbol>
    <symbol id="icon-hamburger" viewBox="0 0 32 32">
      <path stroke-linecap="round" stroke-linejoin="round" stroke-width="2.5" d="M4 16h24M4 8h24M4 24h24"/>
    </symbol>

    <symbol id="icon-x" viewBox="0 0 32 32">
      <path fill="none" stroke="#fff" stroke-linecap="round" stroke-linejoin="round" stroke-width="2" d="M22.667 9.333 9.334 22.666M9.333 9.333l13.333 13.333" style="stroke:var(--color1, #fff)"/>
    </symbol>

    <!-- Advanatge Icons -->
    <symbol id="icon-chocolate-bar" viewBox="0 0 32 32">
      <path d="M13.822 2.413l7.527 7.536 0.080-0.080c0.154-0.151 0.366-0.244 0.599-0.244 0.227 0 0.433 0.088 0.586 0.232l-0-0 0.873 0.873c0.305 0.305 0.315 0.77 0.083 1.094l-0.004 0.007-0.143 0.192 6.16 6.16c0.55 0.55 0.55 1.43 0 1.98l-9.43 9.43c-0.55 0.55-1.43 0.55-1.98 0l-4.447-4.447c-0.155 0.195-0.393 0.319-0.659 0.319-0.233 0-0.444-0.095-0.596-0.248l-2.6-2.6c-0.151-0.154-0.244-0.366-0.244-0.599 0-0.227 0.088-0.433 0.232-0.586l-0 0 0.006-0.007 0.077-0.076-7.527-7.527c-0.55-0.55-0.55-1.43 0-1.98l9.43-9.43c0.55-0.55 1.43-0.55 1.98 0v0.001zM20.404 10.893l-1.756-1.755c-0.108-0.111-0.258-0.18-0.425-0.18s-0.317 0.069-0.425 0.18l-3.58 3.58c-0.111 0.11-0.179 0.262-0.179 0.43s0.068 0.32 0.179 0.43l1.749 1.749 0.61-0.61-1.565-1.565 3.21-3.22 1.569 1.574 0.613-0.613zM15.328 15.965l-1.754-1.754c-0.108-0.111-0.258-0.18-0.425-0.18s-0.317 0.069-0.425 0.18l-3.59 3.59c-0.24 0.23-0.24 0.61 0 0.85l1.752 1.752 0.616-0.616-1.57-1.564 3.22-3.21 1.564 1.563 0.612-0.611zM8.822 8.193l3.58 3.58c0.24 0.24 0.62 0.24 0.85-0.010l3.58-3.58c0.111-0.106 0.18-0.255 0.18-0.42 0-0 0-0 0-0v0h0.010c0-0.15-0.060-0.31-0.18-0.43l-3.58-3.58c-0.11-0.111-0.262-0.18-0.43-0.18s-0.32 0.069-0.43 0.18l-0 0-3.58 3.59c-0.24 0.23-0.24 0.61 0 0.85zM3.752 13.263l3.58 3.58c0.24 0.24 0.62 0.24 0.85 0l3.58-3.58c0.111-0.106 0.18-0.255 0.18-0.42 0-0.004-0-0.007-0-0.010v0.001h0.010c0-0.16-0.060-0.31-0.18-0.43l-3.58-3.58c-0.108-0.111-0.258-0.18-0.425-0.18s-0.317 0.069-0.425 0.18l-3.59 3.59c-0.24 0.23-0.24 0.61 0 0.85zM10.685 22.017l2.362 2.363 9.636-13.040-0.655-0.655-11.343 11.332z"></path>
      <path d="M13.822 2.413l7.527 7.536 0.080-0.080c0.154-0.151 0.366-0.244 0.599-0.244 0.227 0 0.433 0.088 0.586 0.232l-0-0 0.873 0.873c0.305 0.305 0.315 0.77 0.083 1.094l-0.004 0.007-0.143 0.192 6.16 6.16c0.55 0.55 0.55 1.43 0 1.98l-9.43 9.43c-0.55 0.55-1.43 0.55-1.98 0l-4.447-4.447c-0.155 0.195-0.393 0.319-0.659 0.319-0.233 0-0.444-0.095-0.596-0.248l-2.6-2.6c-0.151-0.154-0.244-0.366-0.244-0.599 0-0.227 0.088-0.433 0.232-0.586l-0 0 0.006-0.007 0.077-0.076-7.527-7.527c-0.55-0.55-0.55-1.43 0-1.98l9.43-9.43c0.55-0.55 1.43-0.55 1.98 0v0.001zM20.404 10.893l-1.756-1.755c-0.108-0.111-0.258-0.18-0.425-0.18s-0.317 0.069-0.425 0.18l-3.58 3.58c-0.111 0.11-0.179 0.262-0.179 0.43s0.068 0.32 0.179 0.43l1.749 1.749 0.61-0.61-1.565-1.565 3.21-3.22 1.569 1.574 0.613-0.613zM15.328 15.965l-1.754-1.754c-0.108-0.111-0.258-0.18-0.425-0.18s-0.317 0.069-0.425 0.18l-3.59 3.59c-0.24 0.23-0.24 0.61 0 0.85l1.752 1.752 0.616-0.616-1.57-1.564 3.22-3.21 1.564 1.563 0.612-0.611zM8.822 8.193l3.58 3.58c0.24 0.24 0.62 0.24 0.85-0.010l3.58-3.58c0.111-0.106 0.18-0.255 0.18-0.42 0-0 0-0 0-0v0h0.010c0-0.15-0.060-0.31-0.18-0.43l-3.58-3.58c-0.11-0.111-0.262-0.18-0.43-0.18s-0.32 0.069-0.43 0.18l-0 0-3.58 3.59c-0.24 0.23-0.24 0.61 0 0.85zM3.752 13.263l3.58 3.58c0.24 0.24 0.62 0.24 0.85 0l3.58-3.58c0.111-0.106 0.18-0.255 0.18-0.42 0-0.004-0-0.007-0-0.010v0.001h0.010c0-0.16-0.060-0.31-0.18-0.43l-3.58-3.58c-0.108-0.111-0.258-0.18-0.425-0.18s-0.317 0.069-0.425 0.18l-3.59 3.59c-0.24 0.23-0.24 0.61 0 0.85zM10.685 22.017l2.362 2.363 9.636-13.040-0.655-0.655-11.343 11.332z"></path>
    </symbol>
    <symbol id="icon-coin" viewBox="0 0 32 32">
      <path d="M16 2.667c-7.333 0-13.333 6-13.333 13.333s6 13.333 13.333 13.333 13.333-6 13.333-13.333-6-13.333-13.333-13.333zM16 26.667c-5.867 0-10.667-4.8-10.667-10.667s4.8-10.667 10.667-10.667 10.667 4.8 10.667 10.667-4.8 10.667-10.667 10.667z"></path>
      <path d="M17.733 14.667h-3.466c-0.667 0-1.2-0.534-1.2-1.2 0-0.667 0.533-1.2 1.2-1.2h4.933c0.8 0 1.333-0.534 1.333-1.334s-0.533-1.333-1.333-1.333h-1.867v-1.2c0-0.8-0.533-1.333-1.333-1.333s-1.333 0.533-1.333 1.333v1.2h-0.4c-2.135 0.002-3.865 1.732-3.867 3.867v0c0.002 2.135 1.732 3.864 3.867 3.866h3.333c0.667 0 1.2 0.534 1.2 1.2 0 0.667-0.533 1.2-1.2 1.2h-4.933c-0.8 0-1.334 0.534-1.334 1.334s0.534 1.333 1.334 1.333h2v1.2c0 0.8 0.533 1.333 1.333 1.333s1.333-0.533 1.333-1.333v-1.2h0.4c2.135-0.002 3.865-1.732 3.867-3.867v-0c-0.002-2.135-1.732-3.864-3.867-3.866h-0z"></path>
    </symbol>
    <symbol id="icon-spoon" viewBox="0 0 32 32">
      <path d="M15.451 14.106c-0.732-0.884-1.176-2.029-1.176-3.278 0-0.001 0-0.003 0-0.004v0c0-4.324 5.181-8.642 10.362-8.642 2.861 0.001 5.18 2.321 5.181 5.182v0c0 5.182-4.317 10.364-8.646 10.364-0.001 0-0.002 0-0.003 0-1.249 0-2.395-0.444-3.287-1.184l0.009 0.007-12.758 12.761c-0.308 0.287-0.723 0.463-1.178 0.463-0.955 0-1.73-0.775-1.73-1.73 0-0.456 0.176-0.87 0.464-1.179l-0.001 0.001 12.764-12.761z"></path>
    </symbol>

    <!-- How-its-make -->
    <symbol id="icon-playbtn" viewBox="0 0 32 32">
      <path fill="#f5f4f4" style="fill: var(--color1, #f5f4f4)" d="M11.886 23.771v-13.714l12.8 6.857-12.8 6.857z"></path>
      <path fill="none" stroke="#fff" style="stroke: var(--color2, #fff)" stroke-linejoin="miter" stroke-linecap="butt" stroke-miterlimit="4" stroke-width="0.9143" d="M31.543 16c0 8.584-6.959 15.543-15.543 15.543s-15.543-6.959-15.543-15.543c0-8.584 6.959-15.543 15.543-15.543s15.543 6.959 15.543 15.543z"></path>
    </symbol>

    <!-- Hero icon -->
    <symbol id="icon-Vector" viewBox="0 0 56 32">
      <path d="M30.603 21.134c-0.341 0.344-0.746 0.616-1.193 0.803s-0.926 0.282-1.41 0.282c-0.484 0-0.963-0.096-1.41-0.282s-0.852-0.459-1.193-0.803l-16.793-16.83c-0.341-0.344-0.746-0.616-1.193-0.803s-0.926-0.282-1.41-0.282-0.963 0.096-1.41 0.282c-0.447 0.186-0.852 0.459-1.193 0.803-0.683 0.687-1.066 1.616-1.066 2.585s0.383 1.898 1.066 2.585l16.83 16.83c2.062 2.060 4.858 3.217 7.773 3.217s5.711-1.157 7.773-3.217l16.83-16.83c0.677-0.683 1.059-1.605 1.063-2.567 0.003-0.483-0.090-0.961-0.272-1.408s-0.452-0.853-0.791-1.196c-0.341-0.344-0.746-0.616-1.193-0.803s-0.926-0.282-1.41-0.282c-0.484 0-0.963 0.096-1.41 0.282s-0.852 0.459-1.193 0.803l-16.793 16.83z"></path>
    </symbol>

     <!-- Footer icon -->
    <symbol id="instagram"  viewBox="0 0 24 24" fill="none" xmlns="http://www.w3.org/2000/svg">
      <path d="M17 2H7C4.23858 2 2 4.23858 2 7V17C2 19.7614 4.23858 22 7 22H17C19.7614 22 22 19.7614 22 17V7C22 4.23858 19.7614 2 17 2Z"  stroke-width="2" stroke-linecap="round" stroke-linejoin="round"/>
      <path d="M16.0002 11.3701C16.1236 12.2023 15.9815 13.0523 15.594 13.7991C15.2065 14.5459 14.5933 15.1515 13.8418 15.5297C13.0903 15.908 12.2386 16.0397 11.408 15.906C10.5773 15.7723 9.80996 15.3801 9.21503 14.7852C8.62011 14.1903 8.22793 13.4229 8.09426 12.5923C7.9606 11.7616 8.09226 10.91 8.47052 10.1584C8.84878 9.40691 9.45438 8.7938 10.2012 8.4063C10.948 8.0188 11.7979 7.87665 12.6302 8.00006C13.4791 8.12594 14.265 8.52152 14.8719 9.12836C15.4787 9.73521 15.8743 10.5211 16.0002 11.3701Z" stroke-width="2" stroke-linecap="round" stroke-linejoin="round"/>
      <path d="M16.0002 11.3701C16.1236 12.2023 15.9815 13.0523 15.594 13.7991C15.2065 14.5459 14.5933 15.1515 13.8418 15.5297C13.0903 15.908 12.2386 16.0397 11.408 15.906C10.5773 15.7723 9.80996 15.3801 9.21503 14.7852C8.62011 14.1903 8.22793 13.4229 8.09426 12.5923C7.9606 11.7616 8.09226 10.91 8.47052 10.1584C8.84878 9.40691 9.45438 8.7938 10.2012 8.4063C10.948 8.0188 11.7979 7.87665 12.6302 8.00006C13.4791 8.12594 14.265 8.52152 14.8719 9.12836C15.4787 9.73521 15.8743 10.5211 16.0002 11.3701Z" stroke-width="2" stroke-linecap="round" stroke-linejoin="round"/>
      <path d="M17.5 6.5H17.51"  stroke-width="2" stroke-linecap="round" stroke-linejoin="round"/>
<!-- <path d="M17.5 6.5H17.51" stroke="#111111" stroke-width="2" stroke-linecap="round" stroke-linejoin="round"/> -->
    </symbol>

    <symbol id="twitter" viewBox="0 0 24 24" fill="none" xmlns="http://www.w3.org/2000/svg">
      <path d="M23 3.00005C22.0424 3.67552 20.9821 4.19216 19.86 4.53005C19.2577 3.83756 18.4573 3.34674 17.567 3.12397C16.6767 2.90121 15.7395 2.95724 14.8821 3.2845C14.0247 3.61176 13.2884 4.19445 12.773 4.95376C12.2575 5.71308 11.9877 6.61238 12 7.53005V8.53005C10.2426 8.57561 8.50127 8.18586 6.93101 7.39549C5.36074 6.60513 3.51032 4.72313 2.5 3.2845C2.5 3.2845 -1 13 8 17C5.94053 18.398 3.48716 19.099 1 19C10 24 21 19 21 7.50005C20.9991 7.2215 20.9723 6.94364 20.92 6.67005C21.9406 5.66354 22.6608 4.39276 23 3.00005Z" stroke-width="2" stroke-linecap="round" stroke-linejoin="round"/>
    </symbol>

    <!--Modal-review and modal-subscribe -->
    <symbol id="icon-number" viewBox="0 0 96 32">
      <path d="M10.141 23.756V5.917h3.421v17.839h-3.421zm-7.412-7.291v-3.217h18.246v3.217H2.729zm30.036 12.952a18.66 18.66 0 0 1-5.865-.937c-1.873-.625-3.407-1.466-4.602-2.525l1.873-3.217c.95.896 2.186 1.629 3.706 2.199s3.15.855 4.887.855c2.118 0 3.761-.448 4.928-1.344 1.195-.923 1.792-2.159 1.792-3.706 0-1.493-.57-2.688-1.711-3.584-1.113-.923-2.892-1.385-5.335-1.385h-2.281v-2.851l8.471-10.426.57 1.629H23.599V.582h18.816v2.769l-8.431 10.385-2.118-1.263h1.344c3.448 0 6.028.774 7.738 2.321 1.738 1.548 2.607 3.516 2.607 5.905 0 1.602-.394 3.068-1.181 4.399s-1.982 2.389-3.584 3.177c-1.575.76-3.584 1.14-6.028 1.14zm24.895 0c-2.308 0-4.303-.339-5.987-1.018s-2.986-1.643-3.91-2.892c-.923-1.276-1.385-2.769-1.385-4.48 0-1.683.435-3.109 1.303-4.276.896-1.195 2.186-2.091 3.869-2.688 1.684-.624 3.72-.937 6.109-.937s4.426.312 6.109.937c1.711.597 3.014 1.493 3.91 2.688s1.344 2.62 1.344 4.276c0 1.711-.461 3.204-1.385 4.48-.923 1.249-2.24 2.213-3.951 2.892s-3.72 1.018-6.028 1.018zm0-3.299c2.281 0 4.059-.462 5.335-1.385 1.303-.95 1.955-2.226 1.955-3.828 0-1.575-.652-2.81-1.955-3.706-1.276-.923-3.055-1.385-5.335-1.385-2.253 0-4.018.462-5.295 1.385-1.276.896-1.914 2.131-1.914 3.706 0 1.602.638 2.878 1.914 3.828 1.276.923 3.041 1.385 5.295 1.385zm0-10.793c-2.172 0-4.018-.285-5.539-.855-1.52-.597-2.688-1.439-3.503-2.525-.815-1.113-1.222-2.43-1.222-3.951 0-1.602.421-2.973 1.263-4.113.869-1.168 2.077-2.064 3.625-2.688s3.34-.937 5.376-.937c2.064 0 3.869.312 5.417.937s2.756 1.52 3.625 2.688c.869 1.14 1.303 2.511 1.303 4.113 0 1.52-.407 2.837-1.222 3.951-.815 1.086-1.996 1.928-3.543 2.525-1.548.57-3.407.855-5.58.855zm0-2.606c1.982 0 3.53-.407 4.643-1.222 1.14-.815 1.711-1.928 1.711-3.34 0-1.439-.584-2.566-1.751-3.38s-2.701-1.222-4.602-1.222c-1.901 0-3.421.407-4.561 1.222-1.113.815-1.67 1.941-1.67 3.38 0 1.412.543 2.525 1.629 3.34 1.113.815 2.647 1.222 4.602 1.222zm25.925 16.698c-2.226 0-4.222-.57-5.987-1.711-1.738-1.14-3.122-2.797-4.154-4.969-1.004-2.172-1.507-4.806-1.507-7.901s.502-5.729 1.507-7.901c1.032-2.172 2.417-3.828 4.154-4.969C79.363.826 81.359.255 83.585.255c2.199 0 4.181.57 5.946 1.711s3.15 2.797 4.154 4.969 1.507 4.806 1.507 7.901-.502 5.729-1.507 7.901c-1.004 2.172-2.389 3.828-4.154 4.969s-3.747 1.711-5.946 1.711zm0-3.625c1.493 0 2.796-.407 3.91-1.222 1.14-.815 2.023-2.036 2.647-3.665.652-1.629.977-3.652.977-6.068s-.326-4.439-.977-6.068c-.625-1.629-1.507-2.851-2.647-3.665-1.113-.815-2.417-1.222-3.91-1.222s-2.81.407-3.951 1.222c-1.14.815-2.036 2.036-2.688 3.665-.625 1.629-.937 3.652-.937 6.068s.312 4.439.937 6.068c.652 1.629 1.548 2.851 2.688 3.665s2.457 1.222 3.951 1.222z"/>
    </symbol>
    <symbol id="icon-UK" viewBox="0 0 43 32">
      <path fill="var(--color1, #FFD700)" d="M42.443.523H.324v31.344h42.119V.523z"/>
      <path fill="var(--color2, #0057B7)" d="M.324.523h42.119v15.672H.324V.523z"/>
    </symbol>
    <symbol id="icon-close" viewBox="0 0 32 32">
      <path d="M32 3.223 28.777 0 16 12.777 3.223 0 0 3.223 12.777 16 0 28.777 3.223 32 16 19.223 28.777 32 32 28.777 19.223 16 32 3.223z"/>
    </symbol>

    <!--Modal-buy-now -->
    <symbol id="country-num" viewBox="0 0 32 32">
      <path fill="gold" d="M31.832 5.058H.243v23.508h31.589V5.058z" style="fill:var(--color1, #ffd700)"/>
      <path fill="#0057b7" d="M.243 5.058h31.589v11.754H.243V5.058z" style="fill:var(--color2, #0057b7)"/>
    </symbol>
    <symbol id="mastercard" viewBox="0 0 51 32">
      <path fill="#ed0006" d="M25.6 26.935a14.53 14.53 0 0 1-9.496 3.518c-8.086 0-14.641-6.593-14.641-14.726S8.018 1.001 16.104 1.001c3.624 0 6.94 1.324 9.496 3.518a14.532 14.532 0 0 1 9.497-3.518c8.086 0 14.64 6.593 14.64 14.726s-6.555 14.726-14.64 14.726c-3.624 0-6.94-1.324-9.497-3.518z" style="fill:var(--color3, #ed0006)"/>
      <path fill="#f9a000" d="M25.6 26.935c3.148-2.701 5.144-6.72 5.144-11.209S28.748 7.219 25.6 4.518A14.53 14.53 0 0 1 35.097 1c8.086 0 14.64 6.593 14.64 14.726s-6.555 14.726-14.64 14.726c-3.624 0-6.94-1.324-9.497-3.518z" style="fill:var(--color4, #f9a000)"/>
      <path fill="#ff5e00" d="M25.6 26.935c3.148-2.701 5.144-6.72 5.144-11.208S28.748 7.22 25.6 4.519c-3.148 2.701-5.144 6.72-5.144 11.208s1.996 8.507 5.144 11.208z" style="fill:var(--color5, #ff5e00)"/>
    </symbol>
    <symbol id="close-icon" viewBox="0 0 32 32">
      <path d="M32 3.223l-3.223-3.223-12.777 12.777-12.777-12.777-3.223 3.223 12.777 12.777-12.777 12.777 3.223 3.223 12.777-12.777 12.777 12.777 3.223-3.223-12.777-12.777 12.777-12.777z"></path>
    </symbol>
  </defs>
</svg>